<?xml version="1.0" ?>
<svg width="30" height="30" enable-background="new 0 0 64 64" version="1.1" viewBox="0 0 64 64" xml:space="preserve" xmlns="http://www.w3.org/2000/svg" xmlns:xlink="http://www.w3.org/1999/xlink"><g id="Layer_1"/>
<g id="icon">
<g>
<path stroke="white" fill="white" fill-opacity="1" stroke-opacity="1" d="M12.154,31.411h-0.412c-1.193,0-2.323-0.58-3.022-1.552c-0.692-0.962-0.875-2.151-0.502-3.264    C11.683,16.265,21.329,9.323,32.221,9.323c5.183,0,10.142,1.548,14.369,4.479l2.28-2.28c0.49-0.49,1.183-0.681,1.849-0.505    c0.669,0.175,1.18,0.677,1.367,1.344l3.815,14.298c0.185,0.667,0.002,1.364-0.491,1.857c-0.492,0.489-1.188,0.672-1.859,0.487    l-14.271-3.821c-0.667-0.178-1.174-0.685-1.354-1.355c-0.18-0.671,0.004-1.363,0.492-1.853l2.544-2.544    c-2.651-1.531-5.648-2.336-8.74-2.336c-7.457,0-14.112,4.734-16.561,11.78C15.133,30.392,13.724,31.411,12.154,31.411z     M32.221,11.323c-10.031,0-18.915,6.394-22.106,15.909c-0.166,0.494-0.082,1.026,0.229,1.459c0.329,0.457,0.839,0.72,1.399,0.72    h0.412c0.719,0,1.369-0.479,1.617-1.192c2.728-7.85,10.142-13.124,18.449-13.124c3.901,0,7.669,1.15,10.896,3.326l1.006,0.679    l-4.189,4.188l14.05,3.762l-3.788-14.021l-3.519,3.518l-0.707-0.707c-0.052-0.052-0.108-0.105-0.178-0.151    C41.806,12.825,37.122,11.323,32.221,11.323z"/>
</g>
<g>
<path stroke="white" fill="white" fill-opacity="1" stroke-opacity="1" d="M31.779,54.677c-5.183,0-10.142-1.548-14.369-4.479l-2.28,2.28c-0.49,0.49-1.183,0.677-1.848,0.506    c-0.669-0.175-1.181-0.677-1.368-1.344L8.099,37.341c-0.185-0.667-0.002-1.364,0.491-1.857c0.491-0.491,1.185-0.675,1.858-0.487    l14.272,3.821c0.667,0.178,1.174,0.685,1.354,1.356c0.18,0.671-0.005,1.363-0.494,1.853l-2.542,2.542    c2.651,1.532,5.648,2.337,8.74,2.337c7.457,0,14.112-4.734,16.561-11.78c0.527-1.517,1.937-2.536,3.506-2.536h0.412    c1.193,0,2.323,0.58,3.022,1.552c0.692,0.962,0.875,2.151,0.502,3.264C52.317,47.735,42.671,54.677,31.779,54.677z M17.328,47.451    l0.707,0.715c0.05,0.051,0.105,0.103,0.174,0.147c3.985,2.861,8.669,4.363,13.57,4.363c10.031,0,18.915-6.394,22.106-15.909    c0.166-0.494,0.082-1.026-0.229-1.459c-0.329-0.457-0.839-0.72-1.399-0.72h-0.412c-0.719,0-1.369,0.479-1.617,1.192    c-2.728,7.85-10.142,13.124-18.449,13.124c-3.901,0-7.669-1.15-10.896-3.326L19.879,44.9l4.188-4.188l-14.049-3.762l3.788,14.022    L17.328,47.451z"/></g>
</g>
</svg>